<svg width="28" height="24" viewBox="0 0 28 24" fill="none" xmlns="http://www.w3.org/2000/svg">
<path d="M6.09045 0.125206C5.90435 0.34234 6.0397 1.0689 6.87713 4.42613C7.317 6.1966 7.95142 8.7688 8.28978 10.1468C8.89037 12.5937 9.05109 13.053 9.22027 12.7774C9.26256 12.7106 9.30486 12.4851 9.30486 12.2764C9.31332 12.0676 9.34715 11.1322 9.38945 10.1885C9.46558 8.22597 9.57554 7.775 10.0492 7.45765C10.6245 7.07349 10.7344 7.09019 14.1096 7.81676C15.9029 8.20092 16.1989 8.24267 16.2835 8.1007C16.385 7.94203 16.1397 7.71654 14.1688 6.12979C12.5193 4.80194 10.3791 3.07322 7.44388 0.709798C6.53032 -0.0334682 6.30192 -0.125333 6.09045 0.125206Z" fill="white"/>
<path d="M26.0535 5.0944C25.5629 5.17791 24.8269 5.30318 24.404 5.37834C23.9895 5.4535 23.0506 5.60383 22.3315 5.72075C16.977 6.57258 16.5033 6.66444 16.6217 6.83982C16.6809 6.94004 17.0193 6.9985 18.8295 7.18222C19.7431 7.28244 20.5805 7.39936 20.7074 7.44111C21.5026 7.74176 21.4095 8.26789 20.4114 9.18654C16.6894 12.6189 16.4864 12.8695 16.4779 14.0971C16.4779 14.7569 16.4779 14.7736 17.2562 16.5023C17.6876 17.4627 18.0936 18.4064 18.1613 18.6068C18.3389 19.0995 18.2459 19.4837 17.9075 19.7259C17.5861 19.9597 17.1039 19.9597 15.2683 19.7593C13.3904 19.5589 12.9082 19.5338 12.7729 19.6173C12.6629 19.6925 12.6629 19.7175 12.7729 19.8261C12.8913 19.943 15.0991 20.9201 19.0325 22.5987C20.8512 23.3754 21.2488 23.4673 21.5533 23.1917C21.9001 22.8827 21.8748 22.6405 21.0204 18.9826C20.1407 15.2329 20.1491 15.2496 20.4452 14.1973C20.6397 13.5042 20.8512 13.1451 21.4687 12.4937C21.7732 12.168 22.5092 11.3913 23.0928 10.7733C23.6765 10.1553 24.4717 9.30346 24.8692 8.89424C26.3073 7.39936 27.7199 5.87942 27.8553 5.67899C27.9314 5.57042 27.9991 5.38669 27.9991 5.28648C27.9991 4.89397 27.5338 4.85221 26.0535 5.0944Z" fill="white"/>
<path d="M6.58954 13.5963C6.10738 14.089 5.04155 15.183 4.22948 16.0349C3.41742 16.8783 2.24163 18.0976 1.61566 18.7407C0.465243 19.9266 0 20.4861 0 20.6782C0 20.745 0.0930487 20.8536 0.211474 20.9287C0.465243 21.0874 -0.0676718 21.1709 5.32915 20.127C7.16475 19.7679 9.69398 19.2752 10.9459 19.033C12.8407 18.6739 13.2552 18.5653 13.4582 18.3983C13.7204 18.1728 13.7627 17.9306 13.602 17.5798C13.5259 17.4045 11.9271 16.0265 10.9628 15.2999C10.4045 14.8824 10.3538 15.1663 10.7852 16.277C10.9459 16.6863 11.0812 17.1623 11.0812 17.321C11.0812 17.8387 10.9882 17.8721 9.39791 17.8721C8.0614 17.8721 7.95989 17.8638 7.69766 17.6801C6.93635 17.1706 6.89406 16.8115 7.35084 14.7571C7.72304 13.0785 7.76533 12.6943 7.5877 12.6943C7.52002 12.6943 7.0717 13.0952 6.58954 13.5963Z" fill="white"/>
</svg>
