<svg width="36" height="41" viewBox="0 0 36 41" fill="none" xmlns="http://www.w3.org/2000/svg">
<path d="M5.07544 17.4995H35.5295V35.4991C35.5295 38.2606 33.291 40.4991 30.5295 40.4991H10.0754C7.31402 40.4991 5.07544 38.2606 5.07544 35.4991V17.4995Z" fill="#E2E5E7"/>
<path d="M5.07556 5C5.07556 2.23857 7.31414 0 10.0756 0H25.3783V22.9996H6.07556C5.52328 22.9996 5.07556 22.5519 5.07556 21.9996V5Z" fill="#E2E5E7"/>
<rect x="21.8247" y="6.49951" width="8.1211" height="6.49989" fill="#E2E5E7"/>
<path d="M5.07544 30.9985H30.4539C30.4539 33.4838 28.4392 35.4985 25.9539 35.4985H5.07544V30.9985Z" fill="#C9D1D8"/>
<rect y="18.4995" width="30.4541" height="14.9998" rx="5" fill="#5F47E7"/>
<rect x="24.3628" y="9.99951" width="11.1665" height="7.49988" fill="#E2E5E7"/>
<path d="M35.5293 10H30.3779C27.6166 10 25.378 7.76135 25.3779 5V0L35.5293 10Z" fill="#B0B7BD"/>
<path d="M35.5292 17.4994V9.99951H27.9156L35.5292 17.4994Z" fill="#C9D1D8"/>
<path d="M6.0907 28.9989V22.999C7.35962 22.999 10.1512 23.049 10.1512 25.249C10.1512 27.4489 7.35962 27.249 6.0907 27.249" stroke="#E2E5E7" stroke-linecap="round"/>
<path d="M20.5562 28.9989V25.999M24.3629 22.999H20.5562V25.999M20.5562 25.999H24.1091M12.6888 22.999V28.9989C14.4653 28.9989 17.7645 28.7489 17.7645 25.999C17.7645 22.999 14.4653 22.999 12.6888 22.999Z" stroke="#E2E5E7" stroke-linecap="round"/>
</svg>
