<svg width="230" height="55" viewBox="0 0 230 55" fill="none" xmlns="http://www.w3.org/2000/svg">
<rect width="230" height="55" rx="27.5" fill="#323232"/>
<path d="M34 15C37.4478 15 40.7544 16.3696 43.1924 18.8076C45.6304 21.2456 47 24.5522 47 28C47 31.4478 45.6304 34.7544 43.1924 37.1924C40.7544 39.6304 37.4478 41 34 41C30.5522 41 27.2456 39.6304 24.8076 37.1924C22.3696 34.7544 21 31.4478 21 28C21 24.5522 22.3696 21.2456 24.8076 18.8076C27.2456 16.3696 30.5522 15 34 15ZM34 17.1233C28.0265 17.1233 23.1667 21.9832 23.1667 28C23.1639 30.2868 23.8819 32.5164 25.2188 34.3717C26.5557 36.2271 28.4433 37.6139 30.6135 38.335C30.6459 38.3399 30.6784 38.3435 30.711 38.3458C31.1508 38.3675 31.3155 38.0663 31.3155 37.8042L31.3003 35.9538C28.2887 36.6103 27.6517 34.4935 27.6517 34.4935C27.1598 33.2368 26.4492 32.9032 26.4492 32.9032C25.4655 32.2272 26.5228 32.2402 26.5228 32.2402C27.3137 32.2965 27.8315 32.8642 28.0568 33.1718L28.1825 33.3625C29.1488 35.0243 30.7175 34.5455 31.335 34.2682C31.4347 33.564 31.712 33.0852 32.0218 32.8122C29.6168 32.537 27.0883 31.6032 27.0883 27.4345C27.0883 26.2472 27.5108 25.2765 28.2042 24.5138L28.1392 24.3297C28.0005 23.8898 27.8098 22.904 28.3103 21.6343L28.397 21.6192C28.6657 21.5845 29.5843 21.591 31.2895 22.7502C32.1728 22.5086 33.0843 22.3854 34 22.384C34.9208 22.3883 35.8482 22.5097 36.7127 22.7523C38.7818 21.344 39.6897 21.6343 39.6897 21.6343C40.279 23.1337 39.9063 24.2387 39.798 24.516C40.4913 25.2743 40.9095 26.2472 40.9095 27.4345C40.9095 31.6162 38.3767 32.5348 35.963 32.8035C36.353 33.1393 36.6997 33.8045 36.6997 34.8185L36.6867 37.8042C36.6867 38.0858 36.8708 38.4152 37.3865 38.335C39.5567 37.6139 41.4443 36.2271 42.7812 34.3717C44.1181 32.5164 44.8361 30.2868 44.8333 28C44.8333 21.9832 39.9735 17.1233 34 17.1233Z" fill="white"/>
<path d="M66.24 26.94C66.24 27.5267 66.0533 28.0267 65.68 28.44C65.32 28.8533 64.78 29.12 64.06 29.24V29.32C64.82 29.4133 65.4267 29.6733 65.88 30.1C66.3467 30.5267 66.58 31.0733 66.58 31.74C66.58 32.2067 66.4867 32.64 66.3 33.04C66.1267 33.44 65.8467 33.7867 65.46 34.08C65.0733 34.3733 64.5733 34.6 63.96 34.76C63.36 34.92 62.6267 35 61.76 35H56.56V24.08H61.76C62.6133 24.08 63.3733 24.1733 64.04 24.36C64.72 24.5333 65.2533 24.8267 65.64 25.24C66.04 25.6533 66.24 26.22 66.24 26.94ZM63.5 31.58C63.5 31.1533 63.3333 30.8467 63 30.66C62.6667 30.46 62.1667 30.36 61.5 30.36H59.54V32.94H61.56C62.12 32.94 62.58 32.84 62.94 32.64C63.3133 32.4267 63.5 32.0733 63.5 31.58ZM63.22 27.18C63.22 26.8333 63.0867 26.58 62.82 26.42C62.5533 26.26 62.16 26.18 61.64 26.18H59.54V28.34H61.3C61.9267 28.34 62.4 28.2533 62.72 28.08C63.0533 27.8933 63.22 27.5933 63.22 27.18ZM79.0581 29.52C79.0581 30.4267 78.9315 31.2333 78.6781 31.94C78.4381 32.6467 78.0848 33.2467 77.6181 33.74C77.1648 34.22 76.6115 34.5867 75.9581 34.84C75.3048 35.08 74.5648 35.2 73.7381 35.2C72.9781 35.2 72.2715 35.08 71.6181 34.84C70.9781 34.5867 70.4248 34.22 69.9581 33.74C69.4915 33.2467 69.1248 32.6467 68.8581 31.94C68.6048 31.2333 68.4781 30.4267 68.4781 29.52C68.4781 28.3067 68.6915 27.2867 69.1181 26.46C69.5448 25.62 70.1581 24.98 70.9581 24.54C71.7581 24.1 72.7048 23.88 73.7981 23.88C74.8248 23.88 75.7315 24.1 76.5181 24.54C77.3048 24.98 77.9248 25.62 78.3781 26.46C78.8315 27.2867 79.0581 28.3067 79.0581 29.52ZM71.5181 29.52C71.5181 30.24 71.5915 30.8467 71.7381 31.34C71.8981 31.82 72.1448 32.1867 72.4781 32.44C72.8115 32.68 73.2448 32.8 73.7781 32.8C74.3115 32.8 74.7381 32.68 75.0581 32.44C75.3915 32.1867 75.6315 31.82 75.7781 31.34C75.9381 30.8467 76.0181 30.24 76.0181 29.52C76.0181 28.8 75.9381 28.2 75.7781 27.72C75.6315 27.24 75.3915 26.88 75.0581 26.64C74.7248 26.4 74.2915 26.28 73.7581 26.28C72.9715 26.28 72.3981 26.5533 72.0381 27.1C71.6915 27.6333 71.5181 28.44 71.5181 29.52ZM91.9809 19.38C91.9143 20.0733 91.7209 20.6867 91.4009 21.22C91.0809 21.74 90.5809 22.1467 89.9009 22.44C89.2209 22.7333 88.3076 22.88 87.1609 22.88C85.9876 22.88 85.0676 22.74 84.4009 22.46C83.7476 22.1667 83.2809 21.76 83.0009 21.24C82.7209 20.72 82.5543 20.1 82.5009 19.38H85.1609C85.2276 20.1133 85.4143 20.6 85.7209 20.84C86.0276 21.08 86.5276 21.2 87.2209 21.2C87.7943 21.2 88.2609 21.0733 88.6209 20.82C88.9943 20.5533 89.2143 20.0733 89.2809 19.38H91.9809ZM84.4009 28.4C84.4009 28.6267 84.3876 28.9067 84.3609 29.24C84.3476 29.5733 84.3276 29.9133 84.3009 30.26C84.2876 30.6067 84.2676 30.9133 84.2409 31.18C84.2143 31.4467 84.1943 31.6333 84.1809 31.74L89.2209 24.08H92.8009V35H89.9209V30.64C89.9209 30.28 89.9343 29.8867 89.9609 29.46C89.9876 29.02 90.0143 28.6133 90.0409 28.24C90.0809 27.8533 90.1076 27.56 90.1209 27.36L85.1009 35H81.5209V24.08H84.4009V28.4ZM104.955 26.32H101.375V35H98.3955V26.32H94.8155V24.08H104.955V26.32ZM109.85 28.4C109.85 28.6267 109.837 28.9067 109.81 29.24C109.797 29.5733 109.777 29.9133 109.75 30.26C109.737 30.6067 109.717 30.9133 109.69 31.18C109.663 31.4467 109.643 31.6333 109.63 31.74L114.67 24.08H118.25V35H115.37V30.64C115.37 30.28 115.383 29.8867 115.41 29.46C115.437 29.02 115.463 28.6133 115.49 28.24C115.53 27.8533 115.557 27.56 115.57 27.36L110.55 35H106.97V24.08H109.85V28.4ZM129.359 35.2C128.279 35.2 127.359 35.0067 126.599 34.62C125.839 34.22 125.259 33.6067 124.859 32.78C124.459 31.9533 124.259 30.8933 124.259 29.6C124.259 28.2667 124.486 27.18 124.939 26.34C125.393 25.5 126.019 24.88 126.819 24.48C127.633 24.08 128.566 23.88 129.619 23.88C130.366 23.88 131.013 23.9533 131.559 24.1C132.119 24.2467 132.606 24.42 133.019 24.62L132.139 26.92C131.673 26.7333 131.233 26.58 130.819 26.46C130.419 26.34 130.019 26.28 129.619 26.28C129.099 26.28 128.666 26.4067 128.319 26.66C127.973 26.9 127.713 27.2667 127.539 27.76C127.379 28.24 127.299 28.8467 127.299 29.58C127.299 30.3 127.386 30.9 127.559 31.38C127.746 31.8467 128.013 32.2 128.359 32.44C128.706 32.6667 129.126 32.78 129.619 32.78C130.246 32.78 130.799 32.7 131.279 32.54C131.759 32.3667 132.226 32.1333 132.679 31.84V34.38C132.226 34.6733 131.746 34.88 131.239 35C130.746 35.1333 130.119 35.2 129.359 35.2ZM145.688 35.24C144.621 35.24 143.634 35.0467 142.728 34.66C141.821 34.2733 141.028 33.7333 140.348 33.04C139.668 32.3467 139.134 31.5333 138.748 30.6C138.374 29.6667 138.188 28.6467 138.188 27.54C138.188 26.4333 138.368 25.4133 138.728 24.48C139.101 23.5333 139.621 22.72 140.288 22.04C140.968 21.3467 141.761 20.8133 142.668 20.44C143.574 20.0533 144.561 19.86 145.628 19.86C146.694 19.86 147.648 20.04 148.487 20.4C149.341 20.76 150.061 21.24 150.648 21.84C151.234 22.4267 151.654 23.0733 151.908 23.78L149.488 24.94C149.208 24.1667 148.734 23.54 148.068 23.06C147.401 22.58 146.588 22.34 145.628 22.34C144.694 22.34 143.868 22.56 143.148 23C142.441 23.44 141.888 24.0467 141.488 24.82C141.101 25.5933 140.908 26.5 140.908 27.54C140.908 28.58 141.108 29.4933 141.508 30.28C141.921 31.0533 142.488 31.66 143.208 32.1C143.928 32.54 144.754 32.76 145.688 32.76C146.448 32.76 147.148 32.6133 147.788 32.32C148.428 32.0133 148.941 31.5867 149.328 31.04C149.714 30.48 149.908 29.82 149.908 29.06V27.92L151.148 29H145.628V26.7H152.628V28.2C152.628 29.3467 152.434 30.36 152.048 31.24C151.661 32.12 151.134 32.86 150.468 33.46C149.814 34.0467 149.074 34.4933 148.248 34.8C147.421 35.0933 146.568 35.24 145.688 35.24ZM154.56 35V24.12H157.18V35H154.56ZM154.56 22.9V20.1H157.18V22.9H154.56ZM164.559 35.12C163.332 35.12 162.379 34.7867 161.699 34.12C161.032 33.44 160.699 32.4867 160.699 31.26V26.46H158.819V24.12H159.019C159.552 24.12 159.966 23.98 160.259 23.7C160.552 23.42 160.699 23.0133 160.699 22.48V21.64H163.319V24.12H165.819V26.46H163.319V31.12C163.319 31.48 163.379 31.7867 163.499 32.04C163.632 32.2933 163.832 32.4867 164.099 32.62C164.379 32.7533 164.732 32.82 165.159 32.82C165.252 32.82 165.359 32.8133 165.479 32.8C165.612 32.7867 165.739 32.7733 165.859 32.76V35C165.672 35.0267 165.459 35.0533 165.219 35.08C164.979 35.1067 164.759 35.12 164.559 35.12ZM168.081 35V20.1H170.801V26.6H177.141V20.1H179.881V35H177.141V29H170.801V35H168.081ZM186.409 35.24C185.569 35.24 184.835 35.0533 184.209 34.68C183.595 34.3067 183.122 33.7867 182.789 33.12C182.469 32.4533 182.309 31.6733 182.309 30.78V24.12H184.929V30.56C184.929 31.0133 185.015 31.4133 185.189 31.76C185.375 32.0933 185.635 32.36 185.969 32.56C186.315 32.7467 186.702 32.84 187.129 32.84C187.555 32.84 187.935 32.7467 188.269 32.56C188.602 32.36 188.862 32.0867 189.049 31.74C189.235 31.3933 189.329 30.98 189.329 30.5V24.12H191.949V35H189.469V32.86L189.689 33.24C189.435 33.9067 189.015 34.4067 188.429 34.74C187.855 35.0733 187.182 35.24 186.409 35.24ZM200.324 35.24C199.537 35.24 198.811 35.0867 198.144 34.78C197.491 34.46 196.971 34.0067 196.584 33.42L196.844 32.9V35H194.384V19.86H197.004V26.28L196.604 25.74C196.977 25.1533 197.484 24.7 198.124 24.38C198.764 24.0467 199.504 23.88 200.344 23.88C201.371 23.88 202.297 24.1333 203.124 24.64C203.951 25.1467 204.604 25.8267 205.084 26.68C205.577 27.5333 205.824 28.4933 205.824 29.56C205.824 30.6133 205.584 31.5733 205.104 32.44C204.624 33.3067 203.971 33.9933 203.144 34.5C202.317 34.9933 201.377 35.24 200.324 35.24ZM200.024 32.84C200.624 32.84 201.157 32.7 201.624 32.42C202.091 32.14 202.451 31.7533 202.704 31.26C202.971 30.7667 203.104 30.2 203.104 29.56C203.104 28.92 202.971 28.36 202.704 27.88C202.451 27.3867 202.091 27 201.624 26.72C201.157 26.4267 200.624 26.28 200.024 26.28C199.451 26.28 198.931 26.42 198.464 26.7C198.011 26.98 197.651 27.3733 197.384 27.88C197.131 28.3733 197.004 28.9333 197.004 29.56C197.004 30.2 197.131 30.7667 197.384 31.26C197.651 31.7533 198.011 32.14 198.464 32.42C198.931 32.7 199.451 32.84 200.024 32.84Z" fill="white"/>
</svg>
