<svg width="313" height="86" viewBox="0 0 313 86" fill="none" xmlns="http://www.w3.org/2000/svg">
<path d="M19.5771 0.402233C18.9789 1.10019 19.414 3.43564 22.1058 14.2271C23.5197 19.918 25.559 28.1861 26.6466 32.6154C28.5771 40.4808 29.0937 41.9572 29.6376 41.0714C29.7735 40.8566 29.9095 40.1318 29.9095 39.4607C29.9367 38.7896 30.0454 35.783 30.1814 32.7496C30.4261 26.4412 30.7796 24.9916 32.3022 23.9715C34.1512 22.7367 34.5046 22.7904 45.3536 25.1258C51.118 26.3607 52.0696 26.4949 52.3415 26.0385C52.6678 25.5285 51.8793 24.8037 45.5439 19.7033C40.2418 15.435 33.3626 9.87827 23.9276 2.28134C20.991 -0.107807 20.2569 -0.403095 19.5771 0.402233Z" fill="white"/>
<path d="M83.7463 16.3739C82.1692 16.6424 79.8036 17.045 78.4441 17.2866C77.1118 17.5282 74.0937 18.0114 71.7825 18.3872C54.571 21.1254 53.0483 21.4206 53.429 21.9844C53.6193 22.3065 54.7069 22.4944 60.5257 23.085C63.4622 23.4071 66.1541 23.7829 66.5619 23.9172C69.1178 24.8836 68.8187 26.5748 65.6103 29.5276C53.6465 40.5606 52.9939 41.366 52.9667 45.3121C52.9667 47.4328 52.9667 47.4865 55.4682 53.0432C56.855 56.1303 58.1601 59.1637 58.3776 59.808C58.9486 61.3918 58.6495 62.6267 57.5619 63.4051C56.5287 64.1568 54.9788 64.1568 49.0785 63.5125C43.0422 62.8683 41.4924 62.7877 41.0573 63.0562C40.7039 63.2978 40.7039 63.3783 41.0573 63.7273C41.438 64.1031 48.5347 67.2439 61.1782 72.6396C67.0242 75.1361 68.3021 75.4314 69.281 74.5455C70.3958 73.5523 70.3142 72.7738 67.568 61.016C64.7402 48.9629 64.7674 49.0166 65.719 45.6342C66.3444 43.4061 67.0242 42.2518 69.0091 40.158C69.9879 39.111 72.3535 36.6145 74.2296 34.628C76.1058 32.6416 78.6616 29.9034 79.9396 28.5881C84.562 23.7829 89.1028 18.8973 89.5378 18.253C89.7825 17.904 90 17.3135 90 16.9913C90 15.7297 88.5046 15.5954 83.7463 16.3739Z" fill="white"/>
<path d="M21.1813 43.7018C19.6315 45.2856 16.2055 48.8022 13.5952 51.5403C10.9849 54.2516 7.20545 58.1708 5.19336 60.2378C1.49547 64.0497 0 65.8483 0 66.4657C0 66.6805 0.299094 67.0295 0.67976 67.2711C1.49547 67.7811 -0.217523 68.0495 17.1299 64.694C23.0303 63.5397 31.1602 61.9559 35.1844 61.1774C41.275 60.0231 42.6073 59.6741 43.2599 59.1372C44.1028 58.4124 44.2388 57.6339 43.7221 56.5065C43.4774 55.9428 38.3384 51.5134 35.2387 49.178C33.4442 47.8358 33.281 48.7485 34.6677 52.3188C35.1844 53.6341 35.6194 55.1643 35.6194 55.6743C35.6194 57.3387 35.3203 57.446 30.2085 57.446C25.9124 57.446 25.5862 57.4192 24.7432 56.8286C22.2961 55.1911 22.1602 54.0368 23.6284 47.4331C24.8248 42.0374 24.9608 40.8026 24.3898 40.8026C24.1723 40.8026 22.7312 42.0911 21.1813 43.7018Z" fill="white"/>
<path d="M104.608 71V23.32H112.928L130.784 47.576H126.816L144.288 23.32H152.608V71H143.84V33.24L147.232 34.072L129.12 58.2H128.096L110.432 34.072L113.312 33.24V71H104.608ZM178.053 71.768C174.64 71.768 171.525 70.9787 168.709 69.4C165.936 67.8213 163.717 65.6667 162.053 62.936C160.432 60.2053 159.621 57.0907 159.621 53.592C159.621 50.0933 160.432 46.9787 162.053 44.248C163.717 41.5173 165.936 39.3627 168.709 37.784C171.482 36.2053 174.597 35.416 178.053 35.416C181.466 35.416 184.56 36.2053 187.333 37.784C190.106 39.3627 192.304 41.5173 193.925 44.248C195.589 46.936 196.421 50.0507 196.421 53.592C196.421 57.0907 195.589 60.2053 193.925 62.936C192.261 65.6667 190.042 67.8213 187.269 69.4C184.496 70.9787 181.424 71.768 178.053 71.768ZM178.053 64.088C179.93 64.088 181.573 63.64 182.981 62.744C184.432 61.848 185.562 60.6107 186.373 59.032C187.226 57.4107 187.653 55.5973 187.653 53.592C187.653 51.544 187.226 49.752 186.373 48.216C185.562 46.6373 184.432 45.4 182.981 44.504C181.573 43.5653 179.93 43.096 178.053 43.096C176.133 43.096 174.448 43.5653 172.997 44.504C171.546 45.4 170.394 46.6373 169.541 48.216C168.73 49.752 168.325 51.544 168.325 53.592C168.325 55.5973 168.73 57.4107 169.541 59.032C170.394 60.6107 171.546 61.848 172.997 62.744C174.448 63.64 176.133 64.088 178.053 64.088ZM219.547 71.768C216.091 71.768 212.976 70.9787 210.203 69.4C207.472 67.7787 205.318 65.6027 203.739 62.872C202.16 60.0987 201.371 56.984 201.371 53.528C201.371 50.072 202.16 46.9787 203.739 44.248C205.318 41.5173 207.472 39.3627 210.203 37.784C212.976 36.2053 216.091 35.416 219.547 35.416C222.022 35.416 224.326 35.864 226.459 36.76C228.592 37.6133 230.427 38.808 231.963 40.344C233.542 41.8373 234.672 43.6293 235.355 45.72L227.995 48.92C227.355 47.1707 226.267 45.7627 224.731 44.696C223.238 43.6293 221.51 43.096 219.547 43.096C217.712 43.096 216.07 43.544 214.619 44.44C213.211 45.336 212.102 46.5733 211.291 48.152C210.48 49.7307 210.075 51.544 210.075 53.592C210.075 55.64 210.48 57.4533 211.291 59.032C212.102 60.6107 213.211 61.848 214.619 62.744C216.07 63.64 217.712 64.088 219.547 64.088C221.552 64.088 223.302 63.5547 224.795 62.488C226.288 61.4213 227.355 59.992 227.995 58.2L235.355 61.528C234.672 63.4907 233.563 65.2613 232.027 66.84C230.491 68.376 228.656 69.592 226.523 70.488C224.39 71.3413 222.064 71.768 219.547 71.768ZM241.717 71V22.552H250.101V54.296L246.901 53.336L263.285 36.184H273.717L260.853 50.2L273.972 71H264.373L252.981 52.952L257.973 51.928L247.477 63.192L250.101 58.072V71H241.717ZM282.878 85.08C281.939 85.08 281.022 84.9947 280.126 84.824C279.23 84.696 278.419 84.44 277.694 84.056V77.08C278.249 77.208 278.91 77.336 279.678 77.464C280.489 77.592 281.235 77.656 281.918 77.656C283.838 77.656 285.225 77.208 286.078 76.312C286.974 75.4587 287.763 74.3067 288.446 72.856L290.75 67.48L290.622 74.52L275.454 36.184H284.478L295.102 64.472H291.902L302.462 36.184H311.55L296.382 74.52C295.486 76.7387 294.398 78.6373 293.118 80.216C291.838 81.7947 290.345 82.9893 288.638 83.8C286.974 84.6533 285.054 85.08 282.878 85.08Z" fill="#FDFEF9"/>
</svg>
