<svg width="75" height="75" viewBox="0 0 75 75" fill="none" xmlns="http://www.w3.org/2000/svg">
<path d="M34.4972 0.0380478C34.2526 0.0637741 33.4931 0.153831 32.8238 0.218147C26.9799 0.861382 20.2993 3.53722 17.3644 6.43175C15.8198 7.94977 15.4465 9.76367 16.3862 11.1659C16.8882 11.9121 17.4288 12.1822 18.3942 12.1822C19.3982 12.1694 20.1705 11.8863 21.7667 10.9343C29.7087 6.20019 36.5824 3.94888 43.0828 3.94888C49.9179 3.94888 55.7618 6.44461 60.5631 11.4361C62.7127 13.6616 64 15.5013 65.3129 18.2543C66.6773 21.0845 67.4883 23.979 67.8487 27.2338C68.0547 29.1763 67.9259 33.3445 67.5913 35.2742C66.5358 41.4234 63.9356 46.8394 59.7264 51.6765C58.3362 53.2717 57.7956 53.8378 56.4054 55.0599C51.8487 59.0994 46.7385 61.9682 41.7313 63.2804C40.2896 63.6663 40.1094 63.6792 37.5865 63.692C34.5615 63.7049 33.9823 63.602 32.2059 62.7272C30.2494 61.7623 28.9622 60.1543 28.3701 57.9158C28.0611 56.7451 28.0611 54.3523 28.3701 52.7957C28.975 49.6696 30.8544 45.7073 33.506 41.9637C36.0032 38.4517 38.2043 36.0203 44.7691 29.5237C50.5615 23.7989 52.1834 22.1137 53.2904 20.7243C55.337 18.1642 55.7361 15.8615 54.5647 13.4044C53.3805 10.8958 51.0249 9.27482 47.4722 8.49008C45.9533 8.1556 40.547 8.1556 38.7449 8.49008C32.6951 9.6093 27.4433 12.015 21.831 16.2346C19.7329 17.8169 17.7892 19.5022 15.1118 22.1137C13.8117 23.3744 12.3958 24.6351 11.971 24.9053C10.465 25.883 9.11343 25.8959 8.19951 24.931C7.11826 23.7989 7.15687 22.1523 8.37972 18.3958C9.04907 16.3117 10.3363 13.0313 11.1858 11.2045L11.8423 9.80227L10.4521 11.2174C7.82622 13.9061 5.77956 16.8521 3.92598 20.6085C1.26146 26.0374 0 31.3247 0 37.1524C0 41.4749 0.643604 45.3857 2.00804 49.4509C4.33789 56.3463 9.08768 63.126 12.4344 64.2967C14.3137 64.9656 16.1158 64.2195 16.9783 62.4442C17.8536 60.6688 17.7506 59.2666 16.4891 55.3815C15.0732 51.0333 14.5583 47.83 14.7257 44.4337C15.0603 37.667 17.506 32.0709 22.0112 27.8384C24.3411 25.6514 27.0828 24.0305 30.2494 22.9885C32.3604 22.2938 33.9308 22.0494 36.2349 22.0365C38.5905 22.0236 39.4014 22.2295 40.0965 23.0013C41.0362 24.0434 40.8302 25.0211 39.0667 27.877C38.1786 29.2921 35.7972 32.6884 33.4674 35.8531C26.1818 45.7073 22.938 52.3197 21.5479 60.1028C21.2261 61.8653 21.2261 65.5188 21.535 66.7667C22.3974 70.1886 25.3065 72.8002 29.7602 74.1381C31.8198 74.7556 33.8407 75 36.6211 75C39.4787 75 40.856 74.8714 43.7007 74.3053C51.7972 72.6972 58.6452 69.0823 64.296 63.4476C70.7707 56.9896 74.2976 49.1679 74.9283 39.9054C75.3274 33.9105 74.0402 26.9379 71.5559 21.5734C69.6251 17.4052 67.6428 14.485 64.6049 11.3589C58.7481 5.31253 51.115 1.54321 42.2204 0.269608C40.9332 0.0895081 35.4754 -0.0777359 34.4972 0.0380478Z" fill="url(#paint0_linear_594_158)"/>
<defs>
<linearGradient id="paint0_linear_594_158" x1="37.5" y1="-0.000213623" x2="37.5" y2="75" gradientUnits="userSpaceOnUse">
<stop stop-color="white"/>
<stop offset="1" stop-color="#5F47E7"/>
</linearGradient>
</defs>
</svg>
