<svg width="90" height="75" viewBox="0 0 90 75" fill="none" xmlns="http://www.w3.org/2000/svg">
<path d="M19.5771 0.402233C18.9789 1.10019 19.414 3.43564 22.1058 14.2271C23.5197 19.918 25.559 28.1861 26.6466 32.6154C28.5771 40.4808 29.0937 41.9572 29.6376 41.0714C29.7735 40.8566 29.9095 40.1318 29.9095 39.4607C29.9367 38.7896 30.0454 35.783 30.1814 32.7496C30.4261 26.4412 30.7796 24.9916 32.3022 23.9715C34.1512 22.7367 34.5046 22.7904 45.3536 25.1258C51.118 26.3607 52.0696 26.4949 52.3415 26.0385C52.6678 25.5285 51.8793 24.8037 45.5439 19.7033C40.2418 15.435 33.3626 9.87827 23.9276 2.28134C20.991 -0.107807 20.2569 -0.403095 19.5771 0.402233Z" fill="white"/>
<path d="M83.7463 16.3739C82.1692 16.6424 79.8036 17.045 78.4441 17.2866C77.1118 17.5282 74.0937 18.0114 71.7825 18.3872C54.571 21.1254 53.0483 21.4206 53.429 21.9844C53.6193 22.3065 54.7069 22.4944 60.5257 23.085C63.4622 23.4071 66.1541 23.7829 66.5619 23.9172C69.1178 24.8836 68.8187 26.5748 65.6103 29.5276C53.6465 40.5606 52.9939 41.366 52.9667 45.3121C52.9667 47.4328 52.9667 47.4865 55.4682 53.0432C56.855 56.1303 58.1601 59.1637 58.3776 59.808C58.9486 61.3918 58.6495 62.6267 57.5619 63.4051C56.5287 64.1568 54.9788 64.1568 49.0785 63.5125C43.0422 62.8683 41.4924 62.7877 41.0573 63.0562C40.7039 63.2978 40.7039 63.3783 41.0573 63.7273C41.438 64.1031 48.5347 67.2439 61.1782 72.6396C67.0242 75.1361 68.3021 75.4314 69.281 74.5455C70.3958 73.5523 70.3142 72.7738 67.568 61.016C64.7402 48.9629 64.7674 49.0166 65.719 45.6342C66.3444 43.4061 67.0242 42.2518 69.0091 40.158C69.9879 39.111 72.3535 36.6145 74.2296 34.628C76.1058 32.6416 78.6616 29.9034 79.9396 28.5881C84.562 23.7829 89.1028 18.8973 89.5378 18.253C89.7825 17.904 90 17.3135 90 16.9913C90 15.7297 88.5046 15.5954 83.7463 16.3739Z" fill="white"/>
<path d="M21.1813 43.7018C19.6315 45.2856 16.2055 48.8022 13.5952 51.5403C10.9849 54.2516 7.20545 58.1708 5.19336 60.2378C1.49547 64.0497 0 65.8483 0 66.4657C0 66.6805 0.299094 67.0295 0.67976 67.2711C1.49547 67.7811 -0.217523 68.0495 17.1299 64.694C23.0303 63.5397 31.1602 61.9559 35.1844 61.1774C41.275 60.0231 42.6073 59.6741 43.2599 59.1372C44.1028 58.4124 44.2388 57.6339 43.7221 56.5065C43.4774 55.9428 38.3384 51.5134 35.2387 49.178C33.4442 47.8358 33.281 48.7485 34.6677 52.3188C35.1844 53.6341 35.6194 55.1643 35.6194 55.6743C35.6194 57.3387 35.3203 57.446 30.2085 57.446C25.9124 57.446 25.5862 57.4192 24.7432 56.8286C22.2961 55.1911 22.1602 54.0368 23.6284 47.4331C24.8248 42.0374 24.9608 40.8026 24.3898 40.8026C24.1723 40.8026 22.7312 42.0911 21.1813 43.7018Z" fill="white"/>
</svg>
